<mxfile host="app.diagrams.net" modified="2024-02-01T21:54:21.374Z" agent="Mozilla/5.0 (Windows NT 10.0; Win64; x64; rv:122.0) Gecko/20100101 Firefox/122.0" etag="9Z1x0-WSywY0ztOssuu4" version="23.1.1" type="github">
  <diagram id="C5RBs43oDa-KdzZeNtuy" name="Page-1">
    <mxGraphModel dx="1434" dy="774" grid="1" gridSize="10" guides="1" tooltips="1" connect="1" arrows="1" fold="1" page="1" pageScale="1" pageWidth="1654" pageHeight="2336" math="0" shadow="0">
      <root>
        <mxCell id="WIyWlLk6GJQsqaUBKTNV-0" />
        <mxCell id="WIyWlLk6GJQsqaUBKTNV-1" parent="WIyWlLk6GJQsqaUBKTNV-0" />
        <mxCell id="jU7rScEruM6JlejuPXg3-58" style="edgeStyle=orthogonalEdgeStyle;rounded=0;orthogonalLoop=1;jettySize=auto;html=1;entryX=0.5;entryY=0;entryDx=0;entryDy=0;" parent="WIyWlLk6GJQsqaUBKTNV-1" source="zkfFHV4jXpPFQw0GAbJ--17" target="jU7rScEruM6JlejuPXg3-44" edge="1">
          <mxGeometry relative="1" as="geometry" />
        </mxCell>
        <mxCell id="zkfFHV4jXpPFQw0GAbJ--17" value="&#xa;Онлайн система &#xa;за самолетни билети" style="swimlane;fontStyle=1;align=center;verticalAlign=top;childLayout=stackLayout;horizontal=1;startSize=80;horizontalStack=0;resizeParent=1;resizeLast=0;collapsible=1;marginBottom=0;rounded=0;shadow=0;strokeWidth=1;fontSize=15;" parent="WIyWlLk6GJQsqaUBKTNV-1" vertex="1">
          <mxGeometry x="289" y="40" width="250" height="390" as="geometry">
            <mxRectangle x="550" y="140" width="160" height="26" as="alternateBounds" />
          </mxGeometry>
        </mxCell>
        <mxCell id="73mzua4RPxOU6UaDtCoA-5" style="edgeStyle=orthogonalEdgeStyle;rounded=0;orthogonalLoop=1;jettySize=auto;html=1;exitX=0.5;exitY=1;exitDx=0;exitDy=0;" parent="zkfFHV4jXpPFQw0GAbJ--17" edge="1">
          <mxGeometry relative="1" as="geometry">
            <mxPoint x="125" y="86" as="sourcePoint" />
            <mxPoint x="125" y="86" as="targetPoint" />
          </mxGeometry>
        </mxCell>
        <mxCell id="73mzua4RPxOU6UaDtCoA-10" value="Полет" style="swimlane;fontStyle=1;align=center;verticalAlign=top;childLayout=stackLayout;horizontal=1;startSize=26;horizontalStack=0;resizeParent=1;resizeLast=0;collapsible=1;marginBottom=0;rounded=0;shadow=0;strokeWidth=1;fontSize=15;" parent="WIyWlLk6GJQsqaUBKTNV-1" vertex="1">
          <mxGeometry x="320" y="150" width="190" height="250" as="geometry">
            <mxRectangle x="550" y="140" width="160" height="26" as="alternateBounds" />
          </mxGeometry>
        </mxCell>
        <mxCell id="73mzua4RPxOU6UaDtCoA-11" style="edgeStyle=orthogonalEdgeStyle;rounded=0;orthogonalLoop=1;jettySize=auto;html=1;exitX=0.5;exitY=1;exitDx=0;exitDy=0;" parent="73mzua4RPxOU6UaDtCoA-10" source="73mzua4RPxOU6UaDtCoA-12" target="73mzua4RPxOU6UaDtCoA-12" edge="1">
          <mxGeometry relative="1" as="geometry" />
        </mxCell>
        <mxCell id="73mzua4RPxOU6UaDtCoA-12" value="&lt;div style=&quot;font-size: 15px;&quot; tabindex=&quot;0&quot; id=&quot;tw-target-text-container&quot; class=&quot;tw-ta-container F0azHf tw-nfl&quot;&gt;&lt;pre dir=&quot;ltr&quot; data-ved=&quot;2ahUKEwintonZ_IqEAxWtQ_EDHeQMARUQ3ewLegQIBRAT&quot; style=&quot;text-align:left&quot; id=&quot;tw-target-text&quot; data-placeholder=&quot;Translation&quot; class=&quot;tw-data-text tw-text-large tw-ta&quot;&gt;Избери дестинция&lt;/pre&gt;&lt;/div&gt;" style="rounded=0;whiteSpace=wrap;html=1;" parent="73mzua4RPxOU6UaDtCoA-10" vertex="1">
          <mxGeometry y="26" width="190" height="60" as="geometry" />
        </mxCell>
        <mxCell id="73mzua4RPxOU6UaDtCoA-13" value="&lt;font style=&quot;font-size: 15px;&quot;&gt;Търси полети&lt;/font&gt;" style="rounded=0;whiteSpace=wrap;html=1;" parent="73mzua4RPxOU6UaDtCoA-10" vertex="1">
          <mxGeometry y="86" width="190" height="60" as="geometry" />
        </mxCell>
        <mxCell id="73mzua4RPxOU6UaDtCoA-14" value="&lt;font style=&quot;font-size: 15px;&quot;&gt;Резервирай билет&lt;/font&gt;" style="rounded=0;whiteSpace=wrap;html=1;" parent="73mzua4RPxOU6UaDtCoA-10" vertex="1">
          <mxGeometry y="146" width="190" height="60" as="geometry" />
        </mxCell>
        <mxCell id="73mzua4RPxOU6UaDtCoA-15" value="&lt;div style=&quot;font-size: 15px;&quot; tabindex=&quot;0&quot; id=&quot;tw-target-text-container&quot; class=&quot;tw-ta-container F0azHf tw-nfl&quot;&gt;&lt;pre dir=&quot;ltr&quot; data-ved=&quot;2ahUKEwintonZ_IqEAxWtQ_EDHeQMARUQ3ewLegQIBRAT&quot; style=&quot;text-align:left&quot; id=&quot;tw-target-text&quot; data-placeholder=&quot;Translation&quot; class=&quot;tw-data-text tw-text-large tw-ta&quot;&gt;Плати&lt;/pre&gt;&lt;/div&gt;" style="rounded=0;whiteSpace=wrap;html=1;" parent="73mzua4RPxOU6UaDtCoA-10" vertex="1">
          <mxGeometry y="206" width="190" height="44" as="geometry" />
        </mxCell>
        <mxCell id="jU7rScEruM6JlejuPXg3-7" value="&#xa;Търсачка за полети" style="swimlane;fontStyle=0;align=center;verticalAlign=top;childLayout=stackLayout;horizontal=1;startSize=80;horizontalStack=0;resizeParent=1;resizeLast=0;collapsible=1;marginBottom=0;rounded=0;shadow=0;strokeWidth=1;fontSize=15;" parent="WIyWlLk6GJQsqaUBKTNV-1" vertex="1">
          <mxGeometry x="310" y="560" width="210" height="220" as="geometry">
            <mxRectangle x="550" y="140" width="160" height="26" as="alternateBounds" />
          </mxGeometry>
        </mxCell>
        <mxCell id="jU7rScEruM6JlejuPXg3-8" style="edgeStyle=orthogonalEdgeStyle;rounded=0;orthogonalLoop=1;jettySize=auto;html=1;exitX=0.5;exitY=1;exitDx=0;exitDy=0;" parent="jU7rScEruM6JlejuPXg3-7" edge="1">
          <mxGeometry relative="1" as="geometry">
            <mxPoint x="125" y="86" as="sourcePoint" />
            <mxPoint x="125" y="86" as="targetPoint" />
          </mxGeometry>
        </mxCell>
        <mxCell id="jU7rScEruM6JlejuPXg3-30" value="&lt;pre style=&quot;font-size: 15px;&quot;&gt;&lt;code class=&quot;!whitespace-pre hljs language-plaintext&quot;&gt;Търси полети по&lt;br&gt;критерии&lt;/code&gt;&lt;/pre&gt;" style="whiteSpace=wrap;html=1;" parent="jU7rScEruM6JlejuPXg3-7" vertex="1">
          <mxGeometry y="80" width="210" height="60" as="geometry" />
        </mxCell>
        <mxCell id="jU7rScEruM6JlejuPXg3-34" value="&lt;pre&gt;&lt;span style=&quot;font-size: 15px;&quot;&gt;&lt;code class=&quot;!whitespace-pre hljs language-plaintext&quot;&gt;Визуализирай&lt;br&gt;резултатите&lt;/code&gt;&lt;/span&gt;&lt;/pre&gt;" style="whiteSpace=wrap;html=1;" parent="jU7rScEruM6JlejuPXg3-7" vertex="1">
          <mxGeometry y="140" width="210" height="80" as="geometry" />
        </mxCell>
        <mxCell id="jU7rScEruM6JlejuPXg3-35" value="&#xa;Мениджър за &#xa;резервации" style="swimlane;fontStyle=1;align=center;verticalAlign=top;childLayout=stackLayout;horizontal=1;startSize=80;horizontalStack=0;resizeParent=1;resizeLast=0;collapsible=1;marginBottom=0;rounded=0;shadow=0;strokeWidth=1;fontSize=15;" parent="WIyWlLk6GJQsqaUBKTNV-1" vertex="1">
          <mxGeometry x="310" y="790" width="210" height="200" as="geometry">
            <mxRectangle x="550" y="140" width="160" height="26" as="alternateBounds" />
          </mxGeometry>
        </mxCell>
        <mxCell id="jU7rScEruM6JlejuPXg3-36" style="edgeStyle=orthogonalEdgeStyle;rounded=0;orthogonalLoop=1;jettySize=auto;html=1;exitX=0.5;exitY=1;exitDx=0;exitDy=0;" parent="jU7rScEruM6JlejuPXg3-35" edge="1">
          <mxGeometry relative="1" as="geometry">
            <mxPoint x="125" y="86" as="sourcePoint" />
            <mxPoint x="125" y="86" as="targetPoint" />
          </mxGeometry>
        </mxCell>
        <mxCell id="jU7rScEruM6JlejuPXg3-37" value="&lt;pre style=&quot;font-size: 15px;&quot;&gt;&lt;code class=&quot;!whitespace-pre hljs language-plaintext&quot;&gt;Регистрирай резервация&lt;/code&gt;&lt;/pre&gt;" style="whiteSpace=wrap;html=1;" parent="jU7rScEruM6JlejuPXg3-35" vertex="1">
          <mxGeometry y="80" width="210" height="60" as="geometry" />
        </mxCell>
        <mxCell id="jU7rScEruM6JlejuPXg3-38" value="&lt;pre style=&quot;font-size: 15px;&quot;&gt;&lt;code class=&quot;!whitespace-pre hljs language-plaintext&quot;&gt;Провери наличност&lt;/code&gt;&lt;/pre&gt;" style="whiteSpace=wrap;html=1;" parent="jU7rScEruM6JlejuPXg3-35" vertex="1">
          <mxGeometry y="140" width="210" height="60" as="geometry" />
        </mxCell>
        <mxCell id="jU7rScEruM6JlejuPXg3-39" value="&lt;pre style=&quot;font-size: 15px;&quot;&gt;&lt;code&gt;Отмени резерацията&lt;/code&gt;&lt;/pre&gt;" style="whiteSpace=wrap;html=1;" parent="WIyWlLk6GJQsqaUBKTNV-1" vertex="1">
          <mxGeometry x="310" y="990" width="210" height="50" as="geometry" />
        </mxCell>
        <mxCell id="jU7rScEruM6JlejuPXg3-59" style="edgeStyle=orthogonalEdgeStyle;rounded=0;orthogonalLoop=1;jettySize=auto;html=1;entryX=0.5;entryY=0;entryDx=0;entryDy=0;" parent="WIyWlLk6GJQsqaUBKTNV-1" source="jU7rScEruM6JlejuPXg3-44" target="jU7rScEruM6JlejuPXg3-52" edge="1">
          <mxGeometry relative="1" as="geometry" />
        </mxCell>
        <mxCell id="jU7rScEruM6JlejuPXg3-44" value="&#xa;Система за &#xa;самолетни билети" style="swimlane;fontStyle=1;align=center;verticalAlign=top;childLayout=stackLayout;horizontal=1;startSize=80;horizontalStack=0;resizeParent=1;resizeLast=0;collapsible=1;marginBottom=0;rounded=0;shadow=0;strokeWidth=1;fontSize=15;" parent="WIyWlLk6GJQsqaUBKTNV-1" vertex="1">
          <mxGeometry x="290" y="470" width="249" height="590" as="geometry">
            <mxRectangle x="550" y="140" width="160" height="26" as="alternateBounds" />
          </mxGeometry>
        </mxCell>
        <mxCell id="jU7rScEruM6JlejuPXg3-45" style="edgeStyle=orthogonalEdgeStyle;rounded=0;orthogonalLoop=1;jettySize=auto;html=1;exitX=0.5;exitY=1;exitDx=0;exitDy=0;" parent="jU7rScEruM6JlejuPXg3-44" edge="1">
          <mxGeometry relative="1" as="geometry">
            <mxPoint x="125" y="86" as="sourcePoint" />
            <mxPoint x="125" y="86" as="targetPoint" />
          </mxGeometry>
        </mxCell>
        <mxCell id="jU7rScEruM6JlejuPXg3-48" value="Обработка на &#xa;плащанията" style="swimlane;fontStyle=1;align=center;verticalAlign=top;childLayout=stackLayout;horizontal=1;startSize=60;horizontalStack=0;resizeParent=1;resizeLast=0;collapsible=1;marginBottom=0;rounded=0;shadow=0;strokeWidth=1;fontSize=15;" parent="WIyWlLk6GJQsqaUBKTNV-1" vertex="1">
          <mxGeometry x="310" y="1190" width="210" height="250" as="geometry">
            <mxRectangle x="550" y="140" width="160" height="26" as="alternateBounds" />
          </mxGeometry>
        </mxCell>
        <mxCell id="jU7rScEruM6JlejuPXg3-49" style="edgeStyle=orthogonalEdgeStyle;rounded=0;orthogonalLoop=1;jettySize=auto;html=1;exitX=0.5;exitY=1;exitDx=0;exitDy=0;" parent="jU7rScEruM6JlejuPXg3-48" edge="1">
          <mxGeometry relative="1" as="geometry">
            <mxPoint x="125" y="86" as="sourcePoint" />
            <mxPoint x="125" y="86" as="targetPoint" />
          </mxGeometry>
        </mxCell>
        <mxCell id="jU7rScEruM6JlejuPXg3-50" value="&lt;pre style=&quot;font-size: 15px;&quot;&gt;&lt;code class=&quot;!whitespace-pre hljs language-plaintext&quot;&gt;Избери метод за плащане&lt;/code&gt;&lt;/pre&gt;" style="whiteSpace=wrap;html=1;" parent="jU7rScEruM6JlejuPXg3-48" vertex="1">
          <mxGeometry y="60" width="210" height="60" as="geometry" />
        </mxCell>
        <mxCell id="jU7rScEruM6JlejuPXg3-51" value="&lt;pre style=&quot;font-size: 13px;&quot;&gt;&lt;font style=&quot;font-size: 13px;&quot;&gt;&lt;span style=&quot;font-size: 15px;&quot;&gt;&lt;code&gt;Въдеди информация за&lt;br&gt;плащане&lt;/code&gt;&lt;/span&gt;&lt;b style=&quot;font-size: 15px;&quot;&gt;&lt;code&gt;&lt;br&gt;&lt;/code&gt;&lt;/b&gt;&lt;/font&gt;&lt;/pre&gt;" style="whiteSpace=wrap;html=1;" parent="jU7rScEruM6JlejuPXg3-48" vertex="1">
          <mxGeometry y="120" width="210" height="80" as="geometry" />
        </mxCell>
        <mxCell id="jU7rScEruM6JlejuPXg3-52" value="&#xa;Платежен сервиз  " style="swimlane;fontStyle=1;align=center;verticalAlign=top;childLayout=stackLayout;horizontal=1;startSize=80;horizontalStack=0;resizeParent=1;resizeLast=0;collapsible=1;marginBottom=0;rounded=0;shadow=0;strokeWidth=1;fontSize=15;" parent="WIyWlLk6GJQsqaUBKTNV-1" vertex="1">
          <mxGeometry x="290" y="1100" width="249" height="370" as="geometry">
            <mxRectangle x="550" y="140" width="160" height="26" as="alternateBounds" />
          </mxGeometry>
        </mxCell>
        <mxCell id="jU7rScEruM6JlejuPXg3-53" style="edgeStyle=orthogonalEdgeStyle;rounded=0;orthogonalLoop=1;jettySize=auto;html=1;exitX=0.5;exitY=1;exitDx=0;exitDy=0;" parent="jU7rScEruM6JlejuPXg3-52" edge="1">
          <mxGeometry relative="1" as="geometry">
            <mxPoint x="125" y="86" as="sourcePoint" />
            <mxPoint x="125" y="86" as="targetPoint" />
          </mxGeometry>
        </mxCell>
        <mxCell id="jU7rScEruM6JlejuPXg3-57" value="&lt;font style=&quot;font-size: 15px;&quot;&gt;Извърши плащането&lt;/font&gt;" style="whiteSpace=wrap;html=1;" parent="WIyWlLk6GJQsqaUBKTNV-1" vertex="1">
          <mxGeometry x="310" y="1390" width="210" height="50" as="geometry" />
        </mxCell>
      </root>
    </mxGraphModel>
  </diagram>
</mxfile>
